<svg id="Layer_1" data-name="Layer 1" xmlns="http://www.w3.org/2000/svg" viewBox="0 0 43.98 43.82"><defs><style>.cls-1{fill:#fff;}</style></defs><path class="cls-1" d="M343.25,10.09a22,22,0,0,0-20.92,14.57,13.74,13.74,0,0,1,10.47-4.57h0c6.47,0,13.3,4.1,15.56,9.31h0a6,6,0,0,1,.36,4.24,4.83,4.83,0,0,1-.92,1.94l-.1.12a1,1,0,0,0,.12,1.37l.33.24.26.16a14.71,14.71,0,0,0,6.74,1.62,9.24,9.24,0,0,0,7-2.76c4.1-4.1,2.51-9.82,1.93-11.48A22,22,0,0,0,347.52,10.5,22.63,22.63,0,0,0,343.25,10.09Zm-10.45,12c-5.2,0-9.37,2.91-11.77,8.21-.79,9.16,4.76,17.38,11.36,21.06a22.83,22.83,0,0,0,8.17,2.55,14.72,14.72,0,0,1-7.84-8.82c-2.16-6.63.55-13.71,6.9-18h0a6.11,6.11,0,0,1,3.33-1,2.82,2.82,0,0,1,.41,0,17,17,0,0,0-10.54-4ZM337,32.26a13.06,13.06,0,0,0-2.32,12.21c1.81,5.56,7.1,9.08,13.55,9.1,5-1.12,9.38-4,13-8.78l.09-.12a1,1,0,0,0-1.22-1.49l-.48.22c-.2.09-.38.15-.6.23l-.83.32a14.74,14.74,0,0,1-5.27.83,17.09,17.09,0,0,1-4.75-.62,16.07,16.07,0,0,1-10.61-8.89A7.27,7.27,0,0,1,337,32.26Z" transform="translate(-320.95 -10.09)"/></svg>